<?xml version="1.0" encoding="UTF-8" standalone="no"?>
<!DOCTYPE svg PUBLIC "-//W3C//DTD SVG 1.1//EN" "http://www.w3.org/Graphics/SVG/1.1/DTD/svg11.dtd">
<svg width="100%" height="100%" viewBox="0 0 125 169" version="1.1" xmlns="http://www.w3.org/2000/svg" xmlns:xlink="http://www.w3.org/1999/xlink" xml:space="preserve" xmlns:serif="http://www.serif.com/" style="fill-rule:evenodd;clip-rule:evenodd;stroke-linejoin:round;stroke-miterlimit:2;">
    <g transform="matrix(1,0,0,1,-35.8451,-15.2308)">
        <g transform="matrix(1,0,0,1,-3.71534,0.350067)">
            <g transform="matrix(1.00647,0,0,1.01417,-22.7862,23.3357)">
                <circle cx="102.388" cy="19.963" r="26.842" style="fill:white;"/>
            </g>
        </g>
        <g transform="matrix(1,0,0,1,-3.71534,0.350067)">
            <g id="path4" transform="matrix(1.33333,0,0,-1.33333,53.9444,40.861)">
                <clipPath id="_clip1">
                    <path d="M-34.757,-4.68L-34.757,-71.991L23.536,-105.646L81.829,-71.991L81.829,-4.68L23.536,28.975L-34.757,-4.68Z"/>
                </clipPath>
                <g clip-path="url(#_clip1)">
                    <path d="M0,0C0,-4.096 0.725,-7.417 -3.371,-7.417C-7.467,-7.417 -10.788,-4.096 -10.788,0C-10.788,4.096 -7.467,7.417 -3.371,7.417C0.725,7.417 0,4.096 0,0" style="fill:rgb(167,50,32);fill-rule:nonzero;"/>
                </g>
            </g>
        </g>
        <g transform="matrix(1,0,0,1,-3.71534,0.350067)">
            <g id="g7" transform="matrix(1,0,0,1,-9.25436,-11.3213)">
                <clipPath id="_clip2">
                    <path d="M16.856,58.423L16.856,148.171L94.58,193.044L172.304,148.171L172.304,58.423L94.58,13.549L16.856,58.423Z"/>
                </clipPath>
                <g clip-path="url(#_clip2)">
                    <g opacity="0.48">
                        <g id="path7" transform="matrix(1.33333,0,0,-1.33333,118.139,53.7692)">
                            <path d="M0,0C0,-11.357 -9.207,-20.564 -20.565,-20.564C-31.922,-20.564 -41.129,-11.357 -41.129,0C-41.129,11.357 -31.922,20.564 -20.565,20.564C-9.207,20.564 0,11.357 0,0" style="fill:rgb(222,244,250);fill-rule:nonzero;"/>
                        </g>
                    </g>
                </g>
            </g>
        </g>
        <g transform="matrix(1,0,0,1,-3.71534,0.350067)">
            <g id="g10" transform="matrix(1,0,0,1,-9.25436,-11.3213)">
                <clipPath id="_clip3">
                    <path d="M16.856,58.423L16.856,148.171L94.58,193.044L172.304,148.171L172.304,58.423L94.58,13.549L16.856,58.423Z"/>
                </clipPath>
                <g clip-path="url(#_clip3)">
                    <g opacity="0.19">
                        <g id="path10" transform="matrix(1.33333,0,0,-1.33333,117.184,55.0341)">
                            <clipPath id="_clip4">
                                <rect x="-41.129" y="-20.564" width="41.129" height="41.129"/>
                            </clipPath>
                            <g clip-path="url(#_clip4)">
                                <path d="M0,0C0,-11.357 -9.207,-20.564 -20.565,-20.564C-31.922,-20.564 -41.129,-11.357 -41.129,0C-41.129,11.357 -31.922,20.564 -20.565,20.564C-9.207,20.564 0,11.357 0,0" style="fill:rgb(85,194,222);fill-rule:nonzero;"/>
                            </g>
                        </g>
                    </g>
                </g>
            </g>
        </g>
        <g transform="matrix(1,0,0,1,-3.71534,0.350067)">
            <g id="path12" transform="matrix(1.33333,0,0,-1.33333,80.51,17.706)">
                <clipPath id="_clip5">
                    <path d="M-54.681,-22.047L-54.681,-89.357L3.612,-123.013L61.905,-89.357L61.905,-22.046L3.612,11.608L-54.681,-22.047Z"/>
                </clipPath>
                <g clip-path="url(#_clip5)">
                    <path d="M0,0C-10.755,0 -19.505,-8.75 -19.505,-19.505C-19.505,-30.26 -10.755,-39.01 0,-39.01C10.755,-39.01 19.505,-30.26 19.505,-19.505C19.505,-8.75 10.755,0 0,0M0,-41.129C-11.924,-41.129 -21.624,-31.429 -21.624,-19.505C-21.624,-7.582 -11.924,2.119 0,2.119C11.923,2.119 21.624,-7.582 21.624,-19.505C21.624,-31.429 11.923,-41.129 0,-41.129" style="fill:rgb(240,62,30);fill-rule:nonzero;"/>
                </g>
            </g>
        </g>
        <g transform="matrix(1,0,0,1,-3.71534,0.350067)">
            <g id="path14" transform="matrix(1.33333,0,0,-1.33333,159.742,115.673)">
                <clipPath id="_clip6">
                    <path d="M-114.106,51.429L-114.106,-15.882L-55.813,-49.537L2.48,-15.882L2.48,51.429L-55.813,85.084L-114.106,51.429Z"/>
                </clipPath>
                <g clip-path="url(#_clip6)">
                    <path d="M0,0C0,-7.261 -5.886,-13.148 -13.148,-13.148C-20.409,-13.148 -26.296,-7.261 -26.296,0C-26.296,7.261 -20.409,13.148 -13.148,13.148C-5.886,13.148 0,7.261 0,0" style="fill:rgb(167,50,32);fill-rule:nonzero;"/>
                </g>
            </g>
        </g>
        <g transform="matrix(1,0,0,1,-3.71534,0.350067)">
            <g id="path16" transform="matrix(1.33333,0,0,-1.33333,148.757,105.817)">
                <clipPath id="_clip7">
                    <path d="M-105.867,44.037L-105.867,-23.274L-47.574,-56.929L10.719,-23.274L10.719,44.037L-47.574,77.692L-105.867,44.037Z"/>
                </clipPath>
                <g clip-path="url(#_clip7)">
                    <path d="M0,0L-6.196,-6.686C-7.684,-8.292 -10.216,-8.388 -11.822,-6.9L-35.968,27.21C-37.574,28.698 -41.022,28.025 -39.534,29.631L-33.108,36.767C-31.62,38.373 -31.802,35.531 -30.196,34.043L-0.214,5.626C1.392,4.137 1.488,1.606 0,0" style="fill:rgb(240,62,30);fill-rule:nonzero;"/>
                </g>
            </g>
        </g>
        <g transform="matrix(1,0,0,1,-3.71534,0.350067)">
            <g id="path18" transform="matrix(1.33333,0,0,-1.33333,97.5302,52.9036)">
                <clipPath id="_clip8">
                    <path d="M-67.446,4.352L-67.446,-62.959L-9.153,-96.614L49.14,-62.959L49.14,4.352L-9.153,38.007L-67.446,4.352Z"/>
                </clipPath>
                <g clip-path="url(#_clip8)">
                    <path d="M0,0C0,-6.654 -5.394,-12.048 -12.048,-12.048C-18.703,-12.048 -24.097,-6.654 -24.097,0C-24.097,6.654 -18.703,12.048 -12.048,12.048C-5.394,12.048 0,6.654 0,0" style="fill:rgb(34,105,76);fill-rule:nonzero;"/>
                </g>
            </g>
        </g>
        <g transform="matrix(1,0,0,1,-3.71534,0.350067)">
            <g id="path20" transform="matrix(1.33333,0,0,-1.33333,89.8254,57.6652)">
                <clipPath id="_clip9">
                    <path d="M-61.668,7.923L-61.668,-59.388L-3.375,-93.043L54.918,-59.388L54.918,7.923L-3.375,41.578L-61.668,7.923Z"/>
                </clipPath>
                <g clip-path="url(#_clip9)">
                    <path d="M0,0C0,-3.705 -3.003,-6.708 -6.708,-6.708C-10.413,-6.708 -13.416,-3.705 -13.416,0C-13.416,3.705 -10.413,6.708 -6.708,6.708C-3.003,6.708 0,3.705 0,0" style="fill:rgb(61,21,20);fill-rule:nonzero;"/>
                </g>
            </g>
        </g>
        <g transform="matrix(1,0,0,1,-3.71534,0.350067)">
            <g id="path22" transform="matrix(1.33333,0,0,-1.33333,160.704,105.565)">
                <clipPath id="_clip10">
                    <path d="M-114.827,43.848L-114.827,-23.463L-56.534,-57.118L1.759,-23.463L1.759,43.848L-56.534,77.503L-114.827,43.848Z"/>
                </clipPath>
                <g clip-path="url(#_clip10)">
                    <path d="M0,0C-0.049,0 -0.1,0.01 -0.148,0.033C-0.325,0.114 -0.402,0.324 -0.321,0.501C0.679,2.668 0.793,4.301 0.029,5.494C-2.055,8.747 -10.537,8.74 -21.271,8.73C-45.78,8.71 -82.823,8.676 -89.377,47.169C-89.41,47.361 -89.28,47.543 -89.088,47.576C-88.896,47.609 -88.713,47.48 -88.68,47.287C-87.168,38.403 -83.868,31.034 -78.873,25.384C-74.551,20.497 -68.794,16.719 -61.761,14.155C-48.751,9.413 -33.513,9.426 -21.271,9.437C-9.892,9.447 -1.669,9.454 0.624,5.875C1.528,4.463 1.429,2.608 0.321,0.205C0.261,0.076 0.133,0 0,0" style="fill:rgb(27,34,29);fill-rule:nonzero;"/>
                </g>
            </g>
        </g>
        <g transform="matrix(1,0,0,1,-3.71534,0.350067)">
            <g id="path24" transform="matrix(1.33333,0,0,-1.33333,73.092,26.5674)">
                <clipPath id="_clip11">
                    <path d="M-49.118,-15.4L-49.118,-82.711L9.175,-116.367L67.468,-82.711L67.468,-15.4L9.175,18.255L-49.118,-15.4Z"/>
                </clipPath>
                <g clip-path="url(#_clip11)">
                    <path d="M0,0C-3.89,-1.643 -4.891,-5.469 -6.659,-3.938C-7.626,-3.102 -5.936,1.019 -2.046,2.663C1.845,4.306 6.859,3.106 7.429,2.013C7.998,0.919 3.89,1.643 0,0" style="fill:rgb(66,159,174);fill-rule:nonzero;"/>
                </g>
            </g>
        </g>
        <g transform="matrix(1,0,0,1,-3.71534,0.350067)">
            <g id="path26" transform="matrix(1.33333,0,0,-1.33333,65.102,36.3396)">
                <clipPath id="_clip12">
                    <path d="M-43.125,-8.071L-43.125,-75.382L15.168,-109.037L73.461,-75.382L73.461,-8.071L15.168,25.584L-43.125,-8.071Z"/>
                </clipPath>
                <g clip-path="url(#_clip12)">
                    <path d="M0,0C-0.329,-0.731 -1.253,-1.083 -2.064,-0.787C-2.875,-0.491 -3.266,0.341 -2.938,1.072C-2.609,1.803 -1.685,2.155 -0.874,1.859C-0.063,1.563 0.329,0.731 0,0" style="fill:rgb(66,159,174);fill-rule:nonzero;"/>
                </g>
            </g>
        </g>
        <g transform="matrix(1,0,0,1,-3.71534,0.350067)">
            <g id="path28" transform="matrix(1.33333,0,0,-1.33333,141.714,119.143)">
                <path d="M0,0L8.13,-4.124C10.082,-5.114 10.869,-7.522 9.879,-9.475L-10.366,-31.387C-11.357,-33.34 -13.765,-34.127 -15.717,-33.137L-16.771,-33.063C-18.724,-32.072 -19.511,-29.664 -18.521,-27.712L-5.351,-1.749C-4.361,0.203 -1.953,0.99 0,0" style="fill:rgb(240,62,30);fill-rule:nonzero;"/>
            </g>
        </g>
        <g transform="matrix(1,0,0,1,-3.71534,0.350067)">
            <g id="path30" transform="matrix(1.33333,0,0,-1.33333,115.424,158.311)">
                <clipPath id="_clip13">
                    <path d="M-80.867,83.407L-80.867,16.096L-22.574,-17.559L35.719,16.096L35.719,83.407L-22.574,117.062L-80.867,83.407Z"/>
                </clipPath>
                <g clip-path="url(#_clip13)">
                    <path d="M0,0C-0.036,0 -0.073,0.002 -0.11,0.007C-0.931,0.104 -2.142,1.193 -3.181,9.492C-3.377,11.063 -3.058,12.25 -2.23,13.02C-0.121,14.982 4.849,13.992 10.602,12.845C17.277,11.514 24.842,10.007 28.517,13.264C30.334,14.874 31.076,17.493 30.787,21.269C30.772,21.463 30.917,21.633 31.112,21.648C31.307,21.662 31.476,21.517 31.491,21.323C31.798,17.311 30.979,14.502 28.986,12.736C25.048,9.245 17.3,10.79 10.464,12.152C5.132,13.215 0.096,14.219 -1.749,12.502C-2.41,11.887 -2.649,10.931 -2.48,9.579C-2.071,6.311 -1.599,3.89 -1.077,2.382C-0.558,0.883 -0.142,0.722 -0.027,0.708C0.267,0.671 0.685,1.313 0.866,1.789C0.935,1.971 1.139,2.063 1.321,1.994C1.504,1.925 1.596,1.722 1.527,1.54C1.465,1.377 0.919,0 0,0" style="fill:rgb(27,34,29);fill-rule:nonzero;"/>
                </g>
            </g>
        </g>
        <g transform="matrix(1,0,0,1,-3.71534,0.350067)">
            <g id="path32" transform="matrix(1.33333,0,0,-1.33333,134.885,172.952)">
                <path d="M0,0C0,-7.825 -8.15,-7.084 -18.205,-7.084C-28.259,-7.084 -36.409,-7.825 -36.409,0C-36.409,7.825 -28.259,14.168 -18.205,14.168C-8.15,14.168 0,7.825 0,0" style="fill:rgb(167,50,32);fill-rule:nonzero;"/>
            </g>
        </g>
        <g transform="matrix(1,0,0,1,-3.71534,0.350067)">
            <g id="path34" transform="matrix(1.33333,0,0,-1.33333,138.384,174.05)">
                <path d="M0,0C0,-7.825 -8.15,-7.084 -18.205,-7.084C-28.259,-7.084 -36.409,-7.825 -36.409,0C-36.409,7.825 -28.259,14.168 -18.205,14.168C-8.15,14.168 0,7.825 0,0" style="fill:rgb(240,62,30);fill-rule:nonzero;"/>
            </g>
        </g>
        <g transform="matrix(1,0,0,1,-3.71534,0.350067)">
            <g id="path36" transform="matrix(1.33333,0,0,-1.33333,114.111,176.877)">
                <path d="M0,0C0.441,0 0.876,-0.003 1.302,-0.005C4.652,-0.026 7.543,-0.043 8.897,1.303C9.476,1.878 9.757,2.676 9.757,3.743C9.757,7.919 5.38,11.317 0,11.317C-5.38,11.317 -9.757,7.919 -9.757,3.743C-9.757,2.676 -9.476,1.878 -8.897,1.303C-7.543,-0.043 -4.652,-0.025 -1.302,-0.005C-0.876,-0.003 -0.441,0 0,0M2.486,-0.187C2.099,-0.187 1.703,-0.184 1.301,-0.182C0.45,-0.177 -0.45,-0.177 -1.301,-0.182C-4.688,-0.202 -7.615,-0.22 -9.022,1.178C-9.635,1.788 -9.934,2.627 -9.934,3.743C-9.934,8.017 -5.478,11.494 -0,11.494C5.478,11.494 9.934,8.017 9.934,3.743C9.934,2.627 9.635,1.788 9.022,1.178C7.782,-0.054 5.362,-0.187 2.486,-0.187" style="fill:rgb(167,50,32);fill-rule:nonzero;"/>
            </g>
        </g>
        <g transform="matrix(1,0,0,1,-3.71534,0.350067)">
            <g id="path38" transform="matrix(1.33333,0,0,-1.33333,46.7855,39.5507)">
                <clipPath id="_clip14">
                    <path d="M-29.388,-5.663L-29.388,-72.974L28.905,-106.629L87.198,-72.974L87.198,-5.663L28.905,27.992L-29.388,-5.663Z"/>
                </clipPath>
                <g clip-path="url(#_clip14)">
                    <path d="M0,0C-1.198,0 -2.173,-0.975 -2.173,-2.173C-2.173,-3.371 -1.198,-4.346 0,-4.346C1.198,-4.346 2.173,-3.371 2.173,-2.173C2.173,-0.975 1.198,0 0,0M0,-4.522C-1.296,-4.522 -2.35,-3.468 -2.35,-2.173C-2.35,-0.877 -1.296,0.177 0,0.177C1.295,0.177 2.349,-0.877 2.349,-2.173C2.349,-3.468 1.295,-4.522 0,-4.522" style="fill:rgb(167,50,32);fill-rule:nonzero;"/>
                </g>
            </g>
        </g>
        <g transform="matrix(1,0,0,1,-3.71534,0.350067)">
            <g id="path40" transform="matrix(1.33333,0,0,-1.33333,54.6184,42.4479)">
                <clipPath id="_clip15">
                    <path d="M-35.263,-3.49L-35.263,-70.801L23.03,-104.456L81.323,-70.801L81.323,-3.49L23.03,30.165L-35.263,-3.49Z"/>
                </clipPath>
                <g clip-path="url(#_clip15)">
                    <path d="M0,0C0,-4.096 0.725,-7.417 -3.371,-7.417C-7.467,-7.417 -10.788,-4.096 -10.788,0C-10.788,4.096 -7.134,8.552 -3.037,8.552C1.059,8.552 0,4.096 0,0" style="fill:rgb(240,62,30);fill-rule:nonzero;"/>
                </g>
            </g>
        </g>
        <g transform="matrix(1,0,0,1,-3.71534,0.350067)">
            <g id="path42" transform="matrix(1.33333,0,0,-1.33333,47.6644,38.6716)">
                <clipPath id="_clip16">
                    <path d="M-30.047,-6.322L-30.047,-73.633L28.246,-107.288L86.539,-73.633L86.539,-6.322L28.246,27.333L-30.047,-6.322Z"/>
                </clipPath>
                <g clip-path="url(#_clip16)">
                    <path d="M0,0C-1.562,0 -2.832,-1.27 -2.832,-2.832C-2.832,-4.394 -1.562,-5.664 0,-5.664C1.562,-5.664 2.832,-4.394 2.832,-2.832C2.832,-1.27 1.562,0 0,0M0,-5.841C-1.659,-5.841 -3.009,-4.491 -3.009,-2.832C-3.009,-1.173 -1.659,0.177 0,0.177C1.659,0.177 3.009,-1.173 3.009,-2.832C3.009,-4.491 1.659,-5.841 0,-5.841" style="fill:rgb(167,50,32);fill-rule:nonzero;"/>
                </g>
            </g>
        </g>
        <g transform="matrix(1,0,0,1,-3.71534,0.350067)">
            <g id="path68" transform="matrix(1.33333,0,0,-1.33333,164.258,115.673)">
                <path d="M0,0C0,-7.261 -5.886,-13.148 -13.148,-13.148C-20.409,-13.148 -26.296,-7.261 -26.296,0C-26.296,7.261 -20.409,13.148 -13.148,13.148C-5.886,13.148 0,7.261 0,0" style="fill:rgb(240,62,30);fill-rule:nonzero;"/>
            </g>
        </g>
        <g transform="matrix(1,0,0,1,-3.71534,0.350067)">
            <g id="path70" transform="matrix(1.33333,0,0,-1.33333,146.216,105.212)">
                <clipPath id="_clip17">
                    <path d="M-103.961,43.583L-103.961,-23.728L-45.668,-57.383L12.625,-23.728L12.625,43.583L-45.668,77.238L-103.961,43.583Z"/>
                </clipPath>
                <g clip-path="url(#_clip17)">
                    <path d="M0,0C-4.637,0 -8.41,-3.773 -8.41,-8.41C-8.41,-13.047 -4.637,-16.82 0,-16.82C4.637,-16.82 8.41,-13.047 8.41,-8.41C8.41,-3.773 4.637,0 0,0M0,-16.996C-4.735,-16.996 -8.587,-13.145 -8.587,-8.41C-8.587,-3.675 -4.735,0.177 0,0.177C4.735,0.177 8.587,-3.675 8.587,-8.41C8.587,-13.145 4.735,-16.996 0,-16.996" style="fill:rgb(167,50,32);fill-rule:nonzero;"/>
                </g>
            </g>
        </g>
        <g transform="matrix(1,0,0,1,-3.71534,0.350067)">
            <g id="path72" transform="matrix(1.33333,0,0,-1.33333,152.228,116.425)">
                <clipPath id="_clip18">
                    <path d="M-108.47,51.993L-108.47,-15.318L-50.177,-48.973L8.116,-15.318L8.116,51.993L-50.177,85.648L-108.47,51.993Z"/>
                </clipPath>
                <g clip-path="url(#_clip18)">
                    <path d="M0,0C0,-2.49 -2.019,-4.509 -4.509,-4.509C-6.999,-4.509 -9.018,-2.49 -9.018,0C-9.018,2.49 -6.999,4.509 -4.509,4.509C-2.019,4.509 0,2.49 0,0" style="fill:rgb(167,50,32);fill-rule:nonzero;"/>
                </g>
            </g>
        </g>
    </g>
</svg>
